# xmcd CD database file
#
# Track frame offsets:
#	150
#	21560
#	38724
#	56764
#	73502
#	93557
#	109259
#	131735
#	152731
#	170145
#	191348
#
# Disc length: 3014 seconds
#
# Revision: 0
# Processed by: cddbd v1.5.2PL0 Copyright (c) Steve Scherf et al.
# Submitted via: CDex 1.51
#
DISCID=9d0bc40b
DTITLE=Steve CONN - River Of Madness - Expanded
DYEAR=1995
DGENRE=Blues
TTITLE0=Mardi Gras Morning
TTITLE1=River Of Madness
TTITLE2=Good Intentions
TTITLE3=Love Is The Word
TTITLE4=Midnight On The Delta
TTITLE5=Time And Time Again
TTITLE6=Where Do We Go From Here
TTITLE7=Morning Light
TTITLE8=The One And Only Truth
TTITLE9=In An Angel's Arms
TTITLE10=I've Got Your Dog (Live) - Bonus Track
EXTD=YEAR: 1995
EXTT0=
EXTT1=
EXTT2=
EXTT3=
EXTT4=
EXTT5=
EXTT6=
EXTT7=
EXTT8=
EXTT9=
EXTT10=
PLAYORDER=
